<?xml version="1.0" encoding="UTF-8"?>
<svg id="Layer_2" data-name="Layer 2" xmlns="http://www.w3.org/2000/svg" viewBox="0 0 388.97 267.92">
  <defs>
    <style>
      .cls-1 {
        fill: #EA612D;
        stroke-width: 0px;
      }
    </style>
  </defs>
  <g id="Layer_1-2" data-name="Layer 1">
    <g>
      <path class="cls-1" d="M168.08,64.55c-2.49.61-5.37,2.34-7.39,1.63-6.34-2.23-6.72-2.27-7.25,4.66-.05.63-.3,1.24-.54,2.17-1.38-.25-2.59-.47-3.76-.69-.24.44-.6.86-.52.99.39.6.94,1.64,1.35,1.6,7.09-.63,12.55,3.42,17.51,7.2,8.63,6.58,17.42,5.76,26.73,2.85.94-.29,1.98-.47,2.78-1.01,1.51-1.01,2.87-2.23,4.29-3.36-1.07-1.18-2.14-2.36-3.21-3.54-.53-.59-1.59-1.27-1.5-1.75.57-3.23,1.19-6.49,2.27-9.58.24-.68,2.48-1.18,3.6-.92,3.21.72,4.73-.15,4.87-3.57.24-5.86,2.67-7.43,8.33-5.55.62.21,1.33.45,1.76.91,7.4,8,17.11,6.57,26.48,6.58,5.14,0,10.32.41,15.41-.07,3.28-.31,6.44-1.91,9.66-2.91,1.85-.58,3.75-1.68,5.58-1.58,17.15.88,34.38,1.28,51.4,3.33,6.41.77,12.5,2.28,18.99.97,1.58-.32,3.88.34,5.13,1.41,7.53,6.43,16.44,3.85,24.84,3.76,1.75-.02,3.58-3.27,5.14-5.22.78-.98.77-2.62,1.59-3.54.65-.72,2.05-1.11,3.06-1.02.51.05,1.21,1.49,1.26,2.33.21,3.97-1.31,8.35,3.01,11.31.15.11-.77,2.88-1.62,3.17-3.19,1.09-6.51,2.03-9.85,2.34-4.18.39-8.43.09-12.65.09-.01-.63-.03-1.26-.04-1.9,4.4-.2,8.8-.39,13.2-.59v-.96h-18.27c.22.71.49,1.56,1.18,3.81-4.28,0-8.38.82-11.99-.17-8.13-2.24-15.77-1.35-23.82.6-7.19,1.74-14.78,1.88-22.2,2.62-2.48.25-4.56.48-4.76,3.75-.33,5.39-4.09,6.71-8.76,7.66-5.22,1.07-10.35,2.86-15.32,4.85-3.61,1.45-3.17,4.46-.98,6.89,3.75,4.16,7.54,8.37,11.8,11.98,3.13,2.65,3.32,5.01,1.25,8.09-.37.55-.84,1.03-1.21,1.59-5.73,8.71-5.12,9.5-14.7,1.51-7.6-6.33-13.61-13.94-17.88-22.92-1.42-2.98-3.65-4.21-7.3-3.43-11.68,2.49-13.91,4.13-15.21,15.92-2.1,19.08-3.06,38.3-5.59,57.32-.94,7.06-4.8,13.78-7.57,20.55-2.95,7.2-6.73,14.11-9.2,21.46-4.21,12.55-11.26,23.37-21.66,30.95-4.09,2.98-11.62,1.58-17.58,1.59-10.69.01-20.87-2.85-31.16-5.55-6.1-1.6-12.86-.71-19.33-.96-1.3-.05-2.59-.15-4.03-1.27,1.46-.22,3.01-.2,4.38-.7,5.8-2.11,11.75-3.97,17.27-6.68,5.6-2.75,10.56-6.78,16.14-9.55,8.93-4.44,14.6-12.34,21.39-19.05,2-1.98,3.42-2.42,5.92-.64,1.79,1.28,4.35,1.47,6.44,2.1-2.11,3.1-4,6.45-6.48,9.27-1.29,1.46-3.58,2.14-5.53,2.86-2.32.86-5.02.93-7.1,2.13-9.01,5.19-17.86,10.65-26.75,16.03-.66.4-1.24.92-2.42,1.8,4.66,1.33,9.02,1.83,12.61,3.75,8.96,4.82,18.82,3.13,28.22,4.53,2.3.34,5.34-1.57,7.45-3.21,9.44-7.3,14.54-17.66,19.2-28.27.92-2.1,2.33-4.02,2.96-6.19.5-1.73.15-3.71.18-5.58-1.87.22-3.91.03-5.58.74-4.23,1.78-8.32,2.6-12.67-.38,2.55-.36,5.09-.72,7.64-1.09,9.59-1.38,16.64-7.5,21.3-14.88,3.15-4.97,2.61-12.32,3.5-18.64.16-1.17-.48-2.72-1.24-3.71-2.42-3.17-4.9-6.34-7.74-9.1-.85-.82-3.36-.95-4.47-.3-5.51,3.21-10.8,6.79-15.89,10.06-2.6-1.15-4.73-2.1-7.76-3.44.38,2.34.57,3.53.95,5.93-5.55.9-11.11,1.79-16.67,2.7-5.16.84-10.29,1.93-15.48,2.48-4.38.46-8.89.86-13.21.27-4.06-.56-7.26-.1-9.66,3.23-4.54,6.29-8.91,12.71-13.44,19-1.39,1.93-3.11,3.63-4.68,5.44-.45-.28-.89-.56-1.34-.84,2.3-4.13,4.44-8.37,6.94-12.38,4.28-6.86,9.11-13.27,16.53-17.18.63-.33,1.43-1.44,1.29-1.96-1.09-4.18-1.33-9.26-3.93-12.19-2.61-2.93-7.35-2.86-11.12.71-3.39,3.21-11.12,3.17-14.63.54.18-.26.45-.76.53-.73,6.43,2.36,11.13-.48,15.45-4.89,1.84-1.88,3.95-3.55,6.12-5.05,5.12-3.55,11.27-1.84,13.99,3.84.85,1.78,1.51,3.68,2.04,5.58.47,1.69.64,3.46,1.01,5.56,2.62-1.01,4.79-1.84,6.96-2.67.44.39.88.78,1.31,1.17-1.32,2.49-2.65,4.98-4.32,8.12,5.33-.4,10.37-.78,15.41-1.16.04-.45.09-.9.13-1.36-3.01-.45-6.02-.89-9.03-1.34,3.87-3.28,8.19-2.93,11.47-.92,6.39,3.9,11.32,2.67,16.28-2.19,1.2-1.17,3.25-1.43,4.84-2.24,4.78-2.45,9.57-4.89,14.26-7.51.82-.46,1.16-1.79,1.72-2.71-1.08-.52-2.13-1.35-3.26-1.51-10.28-1.38-20.58-2.59-30.86-3.97-1.81-.24-3.54-1.05-5.31-1.6,0-.64,0-1.28.01-1.93,4.08-.58,8.28-2.11,12.2-1.58,12.04,1.63,22.5-2.81,32.72-7.83,2.57-1.26,4.41-4.92,5.6-7.87,1.66-4.11,2.76-8.54,3.46-12.93,1.1-6.87,7.64-8.63,11.43-13.65,3.28,4.03,6.52,4.68,10.62,1.43,1.5-1.19,4.43-.6,7.2-.87-.59-3.25-1.09-6-1.61-8.88-3.2,1.64-5.76,2.96-9.63,4.94,1.2-5.16,1.35-8.69-3.03-9.71-.91-.21-3.09,1.17-3.17,1.98-.33,3.07-1.91,7.08,3.83,7.4-4.75,3.77-5.59,3.58-7.69-1.38-1.05-2.46-8.66-7.52-10.56-6.28-2.52,1.65-4.89,4.31-6.08,7.07-2.63,6.05-4.34,12.35-11,15.75-2.57,1.32-4.15,4.48-6.43,6.52-.99.88-3.02,1.81-3.9,1.37-3.4-1.7-6.53-3.94-9.7-7.11,2.15.57,4.65.63,6.39,1.81,2.91,1.99,4.78,1.23,6.89-1.01,2.25-2.39,5.16-4.28,6.99-6.94,2.85-4.11,5.7-8.46,7.28-13.13,1.24-3.67-2.59-4.2-4.77-2.97-7.23,4.08-14.82,3.49-22.35,2.13-5.02-.9-9.79-3.07-14.73-4.48-4.67-1.33-9.47-2.25-14.12-3.64-7.09-2.12-14.86-3.32-20.87-7.19-3.38-2.18-9.67-5.25-8.19-12.03.01-.05-.56-.22-1.37-.53-.5,1.77-.99,3.49-1.53,5.41-5.64-6.82-8.23-35.92,1.62-48.27,8.64-10.83,26.73-21.46,34-17.7-5.41,2.34-10.09,4.58-14.92,6.42-7.95,3.02-13.7,8.22-17.25,15.95-1.37,2.98-3.15,5.78-4.46,8.79-.53,1.22-.29,2.78-.4,4.18,1.59-.27,3.21-.45,4.75-.88.5-.14.81-.96,1.15-1.39,2.71.79,5.22,1.52,7.73,2.25.13.43.26.85.4,1.28-2.53,1.45-5.05,2.91-8.6,4.94.26,2.77.57,6.5.99,10.22.41,3.66.94,7.31,1.41,10.97.61.06,1.22.13,1.82.19,1.61-2.69,3.22-5.37,5.02-8.38,1.15.93,2.2,1.77,3.24,2.61.34-.14.67-.29,1.01-.43-.67-2.02-1.34-4.04-2.12-6.4,5.9.81,2.94,10.24,10.72,9.19-.5-1.51-.68-2.94-1.39-4.02-2.27-3.45-.05-6.29,2.13-7.68,2.9-1.85,3.82,1.47,5.26,3.51,1.15,1.64,3.42,3.59,5.11,3.52,4.5-.18,3.21,1.78,2.11,3.92,3.41,1.71,6.75,3.39,10.09,5.07l-.13-.13ZM294.22,82c-.63-.11-1.33-.48-1.84-.3-5.35,1.88-10.43,1.54-15.97,0-3.23-.9-7.42.6-10.76,2.01-.64.27.52,5.2,1.12,7.92.96,4.34,2.6,4.9,5.97,1.79,3.49-3.22,7.09-4.64,12.06-3.99,7.29.95,7.57.38,9.42-7.42ZM295.91,70.95c3.85,2.26,23.72,2.06,26.82-.27-3.52-2.22-23.69-2.02-26.82.27ZM133.71,148.9c2.3,6.46,4.09,11.48,6.24,17.5,3.41-5.58,2.65-11.95-1.25-15.92-1.04-1.05-3.16-1.04-4.99-1.58ZM330.11,67.62c-.06.72-.11,1.43-.17,2.15,4.7.43,9.4.9,14.11,1.2.38.02,1.32-1.45,1.18-1.64-.5-.7-1.34-1.6-2.08-1.63-4.34-.15-8.69-.07-13.04-.07Z"/>
      <path class="cls-1" d="M164.54,151.4c-5.31.12-8.33,2.69-9.2,8.16-3.23-2.86-2.79-5.34-1.21-7.87,3.61-5.8,3.73-9.04-.28-14.39-2.14-2.85-4.59-5.64-7.44-7.73-1.63-1.2-4.31-1.13-6.55-1.28-2.27-.15-4.7.65-6.84.13-4.48-1.1-8.81-3.49-13.12.37-.3.27-1.12.37-1.43.15-3.53-2.47-7.18-4.07-11.52-2.2-.21-1.4-.98-3.01-.52-4.14.84-2.07,2.4-3.85,3.66-5.75-.37-.4-.74-.8-1.12-1.19-3.99,3.58-7.98,7.17-12.81,11.5v-6.8c-2.33,1.26-4.2,2.27-6.06,3.28l-.61-.81c1.91-2.85,3.82-5.69,5.73-8.54-.33-.57-.66-1.14-.99-1.7-4.48,1.07-9,2.01-13.43,3.26-2.17.61-3.84,1.61-5.33-1.36-.45-.9-3.38-.55-5.17-.79-2.4-.32-4.8-.67-7.2-.99-1.57-.21-3.15-.49-4.73-.52-3.72-.08-7.45-.02-11.17-.02-.09-.41-.18-.82-.28-1.23,1.95-1.82,3.9-3.64,6.93-6.46-2.58.13-3.9.16-5.21.26-4.41.35-8.82.86-13.23,1.01-1,.03-2.04-1.14-3.06-1.76.93-.96,1.73-2.15,2.84-2.83,1.13-.71,2.57-.93,3.79-1.99-4.77-2.82-9.91-.93-14.74-1.68-4.81-.75-9.55-1.98-14.39-3.7,7.56-6.89,18.72-4.53,27.09-11.44-11.07-.38-21.55,1.22-31.53-1.89-.07-.74-.14-1.48-.21-2.22,6.89-1.36,13.78-2.71,22.07-4.34-9.39-3.49-19.03,1.52-27.29-5.84,2.57-.59,4.28-1.22,6.04-1.35,4.63-.35,9.29-.47,13.93-.71,2.91-.15,5.56-.75,8.16,2.06,1.33,1.44,4.87.83,8.01,1.22-.4-1.87-.61-2.87-1.06-4.96,7.46,0,14.54-.02,21.62,0,5.81.02,11.62.09,17.43.16,11.03.13,21.78,1.28,31.19,7.88,5.48,3.84,7.42,9.12,6.72,15.58-.56,5.1,4.77,12.63,9.52,13.44,6.57,1.12,13.18-3.36,14.97-9.46,1.04-3.55,2.17-7.59,7.95-9.01-1.35,3.54-2.75,6.11-3.28,8.86-1.09,5.58-2.4,11.26-2.34,16.88.09,7.45,4.4,13.29,9.56,18.45,3.38,3.38,7.11,6.59,9.74,10.51,2.61,3.89,4.04,8.57,6.39,13.81ZM65.92,67.45c4.34,1.49,9,3.34,13.81,4.68,5.55,1.55,11.21,2.73,16.86,3.88.86.18,1.94-.69,2.91-1.07-.39-.78-.62-2.08-1.2-2.26-10.79-3.27-21.47-7.38-32.38-5.24Z"/>
      <path class="cls-1" d="M168.2,64.68c-1.7-4.66-3.39-9.32-5.43-14.93,2.07.87,4.04,1.7,6.8,2.85.52-.67,1.44-1.9,2.43-3.07.84-.99,1.94-2.82,2.64-2.7,5.68,1.01,7.28-2.8,8.74-7.41-1.4-1.28-3.39-2.6-4.66-4.42-1.2-1.71-1.63-3.96-2.5-6.22,5.45-.4,3.88,8.06,9.98,6.03-.94-3.07-1.79-5.84-2.64-8.61.45-.29.9-.58,1.35-.88,1.33,1.78,2.66,3.56,4.23,5.67,1.36-3.39,2.64-6.57,4.18-10.4-2.07.4-3.52.67-5.5,1.05V7.34c6.56,1.86,9.92,7.96,10.6,15.59,1.13,12.57-7.49,19.88-14.13,28.33-.51.65-1.81,1.23-2.58,1.07-5.29-1.1-6.66,2.74-8.65,6.25-1.26,2.22-3.3,3.98-4.99,5.96,0,0,.14.14.14.14Z"/>
      <path class="cls-1" d="M56.71,262.53c2.51-.16,3.91-.25,5.31-.33-.32-.32-.65-.64-.97-.96,3.55-4.83,7.05-9.7,10.7-14.45.5-.65,1.71-.96,2.64-1.07,8.35-.97,16.69-1.97,25.06-2.74,3.36-.31,6.77-.05,10.16-.05.07.68.14,1.36.22,2.04-7.81,1-15.64,1.87-23.42,3.04-3.98.6-8.49.8-11.64,2.88-3.59,2.37-6,6.58-8.78,10.1-.99,1.26-1.29,3.14-2.4,4.23-1.23,1.2-3.03,1.83-4.59,2.7-.68-1.61-1.36-3.22-2.27-5.39Z"/>
      <path class="cls-1" d="M107.39,215.28c-9.22-7.66-20.78-5.07-33.21,5.59.76-.97,1.4-2.08,2.31-2.89,5.02-4.5,10.1-8.98,17-10.29,2.31-.44,4.9-.75,7.1-.14,5.62,1.54,6.22,1.54,10.02-2.9-1,3.32-2.01,6.63-3.22,10.63Z"/>
      <path class="cls-1" d="M45.97,248.41c1.78-5.89,2.66-12.26,5.55-17.55,3.68-6.73,11.38-2.84,17.51-5.09-3.04,5.67-2.96,5.19-8.44,4.29-1.88-.31-5.11,1.95-6.24,3.89-2.51,4.33-4.07,9.21-6.06,13.85-.17.39-.57.69-.86,1.03-.49-.14-.98-.29-1.47-.43Z"/>
      <path class="cls-1" d="M200.3,35.59c2.36,5.43,4.41,10.16,6.2,14.3-1.97.74-3.65,1.93-5.21,1.81-1.71-.14-4.76-1.54-4.74-2.32.1-3.78.99-7.54,1.74-11.29.14-.69.96-1.24,2-2.5Z"/>
      <path class="cls-1" d="M158.76,46.1c-2.86,1.74-5.47,1.39-7.96-.58-4.24-3.37-3.44-7.56-1.14-12.06.6,2.71.51,5.91,1.99,8,1.46,2.07,4.49,3.03,7.11,4.64Z"/>
      <path class="cls-1" d="M159.58,32.39c1.78.48,3.44.72,4.91,1.4.67.31,1.37,1.54,1.27,2.23-.11.74-1.52,2.02-1.73,1.91-2.39-1.29-5.19-2.38-6.78-4.4-1.07-1.35-.4-4.09-.44-6.2,0-.12.55-.26,1.62-.73.38,1.92.73,3.66,1.15,5.79Z"/>
      <path class="cls-1" d="M190.32,57.33c-4.58,2.32-8.16,4.12-12.03,6.08.64-5.67,5.84-8.61,12.03-6.08Z"/>
      <path class="cls-1" d="M170.82,5.54c-4.62,2.64-8.21.55-9.11-5.54,3.32,2.02,6.06,3.69,9.11,5.54Z"/>
      <path class="cls-1" d="M159.83,98.3c2.51,1.15,5.01,2.31,7.86,3.62-4.39,2.84-6.67,2-7.86-3.62Z"/>
      <path class="cls-1" d="M182.8,65.6c1.97-1.43,3.95-2.86,5.92-4.3.43.08.85.15,1.28.23-.43,1.5-.4,3.67-1.39,4.34-1.44.97-3.61.86-5.47,1.21-.11-.49-.22-.99-.34-1.48Z"/>
      <path class="cls-1" d="M177.32,3.88c2,1.66,4,3.32,5.99,4.97-.21.43-.41.85-.62,1.28-1.85-.96-3.82-1.74-5.48-2.96-.73-.54-.81-1.96-1.19-2.98.43-.11.86-.22,1.29-.32Z"/>
    </g>
  </g>
</svg>